M48
;DRILL file {KiCad 5.0.2-bee76a0~70~ubuntu16.04.1} date tis  8 dec 2020 16:48:22
;FORMAT={-:-/ absolute / inch / decimal}
FMAT,2
INCH,TZ
T1C0.0157
T2C0.0315
T3C0.0354
T4C0.0354
T5C0.0394
T6C0.0394
T7C0.0433
T8C0.1260
%
G90
G05
T1
X3.675Y-1.5232
X3.7189Y-1.4389
X3.89Y-5.085
X3.925Y-2.695
X3.925Y-4.05
X3.925Y-4.905
X3.9352Y-2.7548
X3.9535Y-3.95
X3.9915Y-4.575
X4.02Y-4.71
X4.0808Y-3.415
X4.085Y-4.265
X4.085Y-4.42
X4.1094Y-4.53
X4.12Y-2.765
X4.1379Y-3.55
X4.145Y-1.515
X4.16Y-4.72
X4.165Y-3.345
X4.1665Y-3.75
X4.195Y-3.47
X4.195Y-3.795
X4.2Y-2.595
X4.25Y-1.94
X4.295Y-3.7
X4.2951Y-2.415
X4.3775Y-4.3
X4.4346Y-2.42
X4.435Y-4.475
X4.4632Y-2.505
X4.4632Y-3.47
X4.4632Y-3.62
X4.4632Y-3.785
X4.47Y-4.35
X4.4917Y-2.5423
X4.4917Y-3.295
X4.5203Y-2.5724
X4.5203Y-3.155
X4.545Y-2.29
X4.5488Y-2.6026
X4.5488Y-3.085
X4.5594Y-3.3998
X4.57Y-4.37
X4.5774Y-2.64
X4.5774Y-3.045
X4.5915Y-3.45
X4.5915Y-4.01
X4.62Y-2.325
X4.62Y-4.15
X4.635Y-4.19
X4.6485Y-3.025
X4.6771Y-3.0549
X4.6771Y-4.05
X4.7056Y-3.0978
X4.7056Y-4.021
X4.7342Y-3.135
X4.7342Y-3.69
X4.76Y-2.825
X4.7685Y-1.795
X4.79Y-4.2443
X4.85Y-2.465
X4.8772Y-1.84
X4.895Y-2.5065
X4.97Y-1.76
X4.9747Y-2.525
X5.075Y-3.71
X5.09Y-1.925
X5.095Y-2.54
X5.11Y-3.95
X5.12Y-3.155
X5.1575Y-1.93
X5.165Y-1.84
X5.195Y-2.575
X5.2Y-1.925
X5.25Y-2.8957
X5.2687Y-1.9292
X5.27Y-1.86
X5.295Y-2.61
X5.2985Y-1.955
X5.3615Y-1.94
X5.365Y-2.66
X5.41Y-2.025
X5.4185Y-1.955
X5.42Y-4.25
X5.445Y-2.355
X5.49Y-1.4045
X5.495Y-2.3235
X5.5Y-2.475
X5.5272Y-1.97
X5.595Y-2.3235
X5.61Y-2.055
X5.615Y-1.4331
X5.67Y-2.355
X5.695Y-2.5
X5.7Y-4.65
X5.705Y-2.005
X5.74Y-2.1957
X5.775Y-2.68
X5.815Y-2.66
X5.84Y-1.4649
X5.975Y-1.92
X6.Y-2.8957
X6.02Y-2.815
X6.04Y-3.93
X6.05Y-1.4045
X6.06Y-2.835
X6.065Y-1.97
X6.075Y-3.71
X6.075Y-2.27
X6.0768Y-4.075
X6.095Y-3.26
X6.0965Y-3.05
X6.0965Y-3.495
X6.1053Y-3.8
X6.125Y-2.865
X6.1535Y-3.5235
X6.18Y-5.09
X6.195Y-1.89
X6.245Y-4.73
X6.2515Y-4.6098
X6.27Y-4.08
X6.2852Y-4.6652
X6.3706Y-3.815
X6.43Y-2.095
X6.45Y-3.89
X6.51Y-3.56
X6.52Y-3.205
X6.595Y-5.
X6.61Y-3.99
X6.635Y-1.4331
X6.6528Y-4.415
X6.6814Y-4.205
X6.6814Y-4.2444
X6.685Y-1.4331
X6.7099Y-3.575
X6.715Y-1.6098
X6.7165Y-3.2415
X6.745Y-3.3266
X6.7629Y-2.835
X6.7915Y-2.61
X6.7915Y-3.35
X6.8179Y-4.45
X6.82Y-2.42
X7.05Y-3.49
X7.085Y-4.115
X7.085Y-4.72
X7.089Y-3.4844
X7.0979Y-2.675
X7.1265Y-2.17
X7.1265Y-3.445
X7.15Y-3.5
X7.155Y-1.53
X7.1907Y-2.21
X7.1907Y-2.6888
X7.1907Y-2.87
X7.2Y-3.605
X7.2329Y-3.2598
X7.235Y-1.915
X7.235Y-4.015
X7.2615Y-2.005
X7.29Y-1.87
X7.295Y-2.625
X7.2962Y-3.298
X7.3215Y-2.1607
X7.395Y-3.95
X7.445Y-3.315
X7.455Y-4.07
X7.56Y-3.88
X7.58Y-1.56
X7.65Y-3.845
X7.7107Y-1.68
X7.755Y-1.545
X7.785Y-1.83
X7.795Y-1.63
T2
X4.86Y-4.26
X5.16Y-4.26
X3.56Y-4.71
X3.86Y-4.71
X3.46Y-2.595
X3.86Y-2.595
X7.35Y-3.53
X7.75Y-3.53
X6.18Y-4.26
X6.58Y-4.26
X3.46Y-3.345
X3.86Y-3.345
X3.46Y-3.975
X3.86Y-3.975
X3.46Y-4.59
X3.86Y-4.59
X3.46Y-3.095
X3.86Y-3.095
X7.35Y-2.54
X7.65Y-2.54
X3.46Y-4.1
X3.86Y-4.1
X6.18Y-2.5
X6.58Y-2.5
X7.155Y-4.585
X7.3519Y-4.585
X3.56Y-2.48
X3.86Y-2.48
X4.35Y-1.945
X4.5469Y-1.945
X6.18Y-2.94
X6.58Y-2.94
X4.86Y-4.835
X5.26Y-4.835
X4.8Y-2.725
X4.8Y-3.025
X4.9Y-2.725
X4.9Y-3.025
X5.Y-2.725
X5.Y-3.025
X5.1Y-2.725
X5.1Y-3.025
X5.2Y-2.725
X5.2Y-3.025
X5.3Y-2.725
X5.3Y-3.025
X5.4Y-2.725
X5.4Y-3.025
X5.5Y-2.725
X5.5Y-3.025
X5.6Y-2.725
X5.6Y-3.025
X4.8Y-1.5
X4.8Y-1.7
X4.8543Y-1.6
X4.9087Y-1.5
X4.9087Y-1.7
X4.963Y-1.6
X5.0173Y-1.5
X5.0173Y-1.7
X5.0717Y-1.6
X5.126Y-1.5
X5.126Y-1.7
X5.1803Y-1.6
X5.2346Y-1.5
X5.2346Y-1.7
X5.289Y-1.6
X5.3433Y-1.5
X5.3433Y-1.7
X5.3976Y-1.6
X5.452Y-1.5
X5.452Y-1.7
X5.5063Y-1.6
X5.5606Y-1.5
X5.5606Y-1.7
X5.615Y-1.6
X5.6693Y-1.5
X5.6693Y-1.7
X5.7236Y-1.6
X5.778Y-1.5
X5.778Y-1.7
X5.8323Y-1.6
X5.8866Y-1.5
X5.8866Y-1.7
X5.9409Y-1.6
X5.9953Y-1.5
X5.9953Y-1.7
X6.0496Y-1.6
X6.1039Y-1.5
X6.1039Y-1.7
X6.1583Y-1.6
X6.2126Y-1.5
X6.2126Y-1.7
X6.2669Y-1.6
X6.3213Y-1.5
X6.3213Y-1.7
X6.3756Y-1.6
X6.4299Y-1.5
X6.4299Y-1.7
X6.4843Y-1.6
X6.5386Y-1.5
X6.5386Y-1.7
X6.28Y-2.83
X6.58Y-2.83
X4.86Y-3.82
X5.16Y-3.82
X6.18Y-3.82
X6.58Y-3.82
X3.56Y-2.25
X3.86Y-2.25
X3.46Y-2.97
X3.86Y-2.97
X3.461Y-2.129
X3.861Y-2.129
X7.35Y-3.64
X7.65Y-3.64
X7.35Y-2.65
X7.75Y-2.65
X6.28Y-3.27
X6.58Y-3.27
X7.15Y-4.17
X7.15Y-4.47
X7.25Y-4.17
X7.25Y-4.47
X7.35Y-4.17
X7.35Y-4.47
X7.45Y-4.17
X7.45Y-4.47
X7.55Y-4.17
X7.55Y-4.47
X7.65Y-4.17
X7.65Y-4.47
X7.75Y-4.17
X7.75Y-4.47
X7.85Y-4.17
X7.85Y-4.47
X3.46Y-2.37
X3.86Y-2.37
X7.35Y-2.43
X7.75Y-2.43
X3.02Y-5.145
X3.42Y-5.145
X7.35Y-3.75
X7.75Y-3.75
X7.455Y-4.585
X7.6519Y-4.585
X7.4581Y-4.685
X7.655Y-4.685
X7.35Y-2.98
X7.65Y-2.98
X6.28Y-4.15
X6.58Y-4.15
X6.28Y-4.37
X6.58Y-4.37
X7.35Y-1.875
X7.65Y-1.875
X2.7231Y-1.98
X2.92Y-1.98
X6.18Y-2.05
X6.58Y-2.05
X7.35Y-3.31
X7.75Y-3.31
X4.86Y-4.37
X5.26Y-4.37
X6.18Y-3.16
X6.58Y-3.16
X7.155Y-4.685
X7.3519Y-4.685
X6.18Y-4.04
X6.58Y-4.04
X4.86Y-4.15
X5.26Y-4.15
X7.35Y-3.2
X7.65Y-3.2
X6.28Y-3.93
X6.58Y-3.93
X3.46Y-3.85
X3.86Y-3.85
X7.35Y-2.32
X7.65Y-2.32
X4.86Y-4.04
X5.16Y-4.04
X4.86Y-4.605
X5.26Y-4.605
X3.46Y-4.35
X3.86Y-4.35
X6.18Y-2.28
X6.58Y-2.28
X7.35Y-2.21
X7.75Y-2.21
X6.28Y-2.16
X6.58Y-2.16
X6.28Y-3.71
X6.58Y-3.71
X6.28Y-2.61
X6.58Y-2.61
X6.28Y-2.39
X6.58Y-2.39
X6.18Y-3.38
X6.58Y-3.38
X3.46Y-2.72
X3.86Y-2.72
X7.35Y-2.87
X7.75Y-2.87
X4.8Y-3.25
X4.8Y-3.55
X4.9Y-3.25
X4.9Y-3.55
X5.Y-3.25
X5.Y-3.55
X5.1Y-3.25
X5.1Y-3.55
X5.2Y-3.25
X5.2Y-3.55
X5.3Y-3.25
X5.3Y-3.55
X5.4Y-3.25
X5.4Y-3.55
X5.5Y-3.25
X5.5Y-3.55
X5.6Y-3.25
X5.6Y-3.55
X3.46Y-2.845
X3.86Y-2.845
X7.35Y-2.1
X7.65Y-2.1
X7.35Y-3.09
X7.75Y-3.09
X6.28Y-3.05
X6.58Y-3.05
X4.86Y-4.5
X5.16Y-4.5
X7.35Y-2.76
X7.65Y-2.76
X6.28Y-3.49
X6.58Y-3.49
X4.86Y-3.93
X5.26Y-3.93
X3.46Y-3.6
X3.86Y-3.6
X6.18Y-3.6
X6.58Y-3.6
X3.46Y-3.47
X3.86Y-3.47
X3.46Y-3.22
X3.86Y-3.22
X3.46Y-4.47
X3.86Y-4.47
X3.46Y-4.225
X3.86Y-4.225
X3.46Y-3.725
X3.86Y-3.725
X7.35Y-3.42
X7.65Y-3.42
X4.86Y-4.72
X5.16Y-4.72
X6.18Y-2.72
X6.58Y-2.72
X7.35Y-1.99
X7.75Y-1.99
X7.145Y-4.025
X7.3419Y-4.025
X4.796Y-2.117
X4.796Y-2.417
X4.896Y-2.117
X4.896Y-2.417
X4.996Y-2.117
X4.996Y-2.417
X5.096Y-2.117
X5.096Y-2.417
X5.196Y-2.117
X5.196Y-2.417
X5.296Y-2.117
X5.296Y-2.417
X5.396Y-2.117
X5.396Y-2.417
X5.496Y-2.117
X5.496Y-2.417
X5.596Y-2.117
X5.596Y-2.417
T3
X3.9669Y-4.86
X4.0214Y-4.96
X4.0759Y-4.86
X4.1305Y-4.96
X4.185Y-4.86
X4.2395Y-4.96
X4.2941Y-4.86
X4.3486Y-4.96
X4.4031Y-4.86
X6.6819Y-4.86
X6.7364Y-4.96
X6.7909Y-4.86
X6.8455Y-4.96
X6.9Y-4.86
X6.9545Y-4.96
X7.0091Y-4.86
X7.0636Y-4.96
X7.1181Y-4.86
T4
X5.9Y-2.99
X6.Y-2.99
X5.46Y-4.6
X5.56Y-4.6
X2.74Y-2.95
X2.84Y-2.95
X3.11Y-3.225
X3.21Y-3.225
X3.11Y-3.775
X3.21Y-3.775
X2.74Y-3.23
X2.84Y-3.23
X5.46Y-3.82
X5.56Y-3.82
X3.11Y-4.33
X3.21Y-4.33
X2.74Y-4.33
X2.84Y-4.33
X5.9Y-4.09
X6.Y-4.09
X2.74Y-3.5
X2.84Y-3.5
X7.9Y-2.94
X8.Y-2.94
X3.11Y-4.87
X3.21Y-4.87
X5.9Y-2.16
X6.Y-2.16
X2.74Y-4.05
X2.84Y-4.05
X7.9Y-1.875
X8.Y-1.875
X2.74Y-2.4
X2.84Y-2.4
X2.74Y-2.67
X2.84Y-2.67
X5.46Y-4.89
X5.56Y-4.89
X7.9Y-3.21
X8.Y-3.21
X5.9Y-2.43
X6.Y-2.43
X5.9Y-4.63
X6.Y-4.63
X5.9Y-3.8
X6.Y-3.8
X5.46Y-4.35
X5.56Y-4.35
X3.11Y-2.4
X3.21Y-2.4
X5.9Y-4.91
X6.Y-4.91
X2.74Y-4.6
X2.84Y-4.6
X3.11Y-2.675
X3.21Y-2.675
X3.11Y-4.6
X3.21Y-4.6
X7.9Y-3.74
X8.Y-3.74
X5.9Y-3.53
X6.Y-3.53
X7.9Y-2.41
X8.Y-2.41
X5.46Y-4.08
X5.56Y-4.08
X5.9Y-3.26
X6.Y-3.26
X3.11Y-2.95
X3.21Y-2.95
X3.11Y-4.05
X3.21Y-4.05
X2.74Y-3.78
X2.84Y-3.78
X5.9Y-2.71
X6.Y-2.71
X7.9Y-3.48
X8.Y-3.48
X3.11Y-2.13
X3.21Y-2.13
X3.11Y-3.5
X3.21Y-3.5
X5.9Y-4.36
X6.Y-4.36
X7.9Y-4.
X8.Y-4.
X7.9Y-2.68
X8.Y-2.68
X7.9Y-2.14
X8.Y-2.14
T5
X6.875Y-2.25
X6.875Y-2.35
X6.875Y-2.45
X6.875Y-2.55
X6.875Y-2.65
X6.875Y-2.75
X6.875Y-2.85
X6.875Y-2.95
X6.875Y-3.05
X6.875Y-3.15
X6.875Y-3.25
X6.875Y-3.35
X6.875Y-3.45
X6.875Y-3.55
X6.875Y-3.65
X6.875Y-3.75
X6.875Y-3.85
X6.875Y-3.95
X6.875Y-4.05
X6.875Y-4.15
X6.875Y-4.25
X6.875Y-4.35
X6.875Y-4.45
X6.875Y-4.55
X6.975Y-2.25
X6.975Y-2.35
X6.975Y-2.45
X6.975Y-2.55
X6.975Y-2.65
X6.975Y-2.75
X6.975Y-2.85
X6.975Y-2.95
X6.975Y-3.05
X6.975Y-3.15
X6.975Y-3.25
X6.975Y-3.35
X6.975Y-3.45
X6.975Y-3.55
X6.975Y-3.65
X6.975Y-3.75
X6.975Y-3.85
X6.975Y-3.95
X6.975Y-4.05
X6.975Y-4.15
X6.975Y-4.25
X6.975Y-4.35
X6.975Y-4.45
X6.975Y-4.55
X4.25Y-2.25
X4.25Y-2.35
X4.25Y-2.45
X4.25Y-2.55
X4.25Y-2.65
X4.25Y-2.75
X4.25Y-2.85
X4.25Y-2.95
X4.25Y-3.05
X4.25Y-3.15
X4.25Y-3.25
X4.25Y-3.35
X4.25Y-3.45
X4.25Y-3.55
X4.25Y-3.65
X4.25Y-3.75
X4.25Y-3.85
X4.25Y-3.95
X4.25Y-4.05
X4.25Y-4.15
X4.25Y-4.25
X4.25Y-4.35
X4.25Y-4.45
X4.25Y-4.55
X4.35Y-2.25
X4.35Y-2.35
X4.35Y-2.45
X4.35Y-2.55
X4.35Y-2.65
X4.35Y-2.75
X4.35Y-2.85
X4.35Y-2.95
X4.35Y-3.05
X4.35Y-3.15
X4.35Y-3.25
X4.35Y-3.35
X4.35Y-3.45
X4.35Y-3.55
X4.35Y-3.65
X4.35Y-3.75
X4.35Y-3.85
X4.35Y-3.95
X4.35Y-4.05
X4.35Y-4.15
X4.35Y-4.25
X4.35Y-4.35
X4.35Y-4.45
X4.35Y-4.55
T7
X3.4Y-1.7
X3.4Y-1.8
X3.4Y-1.9
T8
X3.6931Y-4.91
X4.6769Y-4.91
X6.4081Y-4.91
X7.3919Y-4.91
T6
X3.2213Y-1.3771G85X3.2213Y-1.2984
G05
X3.4693Y-1.2098G85X3.3906Y-1.2098
G05
X3.4792Y-1.4461G85X3.3808Y-1.4461
G05
T0
M30
